<mxfile host="65bd71144e">
    <diagram id="kgpKYQtTHZ0yAKxKKP6v" name="MainAppArchDiagram">
        <mxGraphModel dx="1350" dy="655" grid="1" gridSize="10" guides="1" tooltips="1" connect="1" arrows="1" fold="1" page="1" pageScale="1" pageWidth="850" pageHeight="1100" math="0" shadow="0">
            <root>
                <mxCell id="0"/>
                <mxCell id="1" parent="0"/>
                <mxCell id="3ADqGS6lFxCkBstKZRWA-1" value="" style="rounded=0;whiteSpace=wrap;html=1;gradientColor=default;" parent="1" vertex="1">
                    <mxGeometry x="90" y="140" width="280" height="150" as="geometry"/>
                </mxCell>
                <mxCell id="3ADqGS6lFxCkBstKZRWA-3" value="" style="rounded=0;whiteSpace=wrap;html=1;gradientColor=default;" parent="1" vertex="1">
                    <mxGeometry x="90" y="460" width="280" height="150" as="geometry"/>
                </mxCell>
                <mxCell id="3ADqGS6lFxCkBstKZRWA-4" value="" style="rounded=0;whiteSpace=wrap;html=1;gradientColor=default;" parent="1" vertex="1">
                    <mxGeometry x="510" y="460" width="280" height="150" as="geometry"/>
                </mxCell>
                <mxCell id="3ADqGS6lFxCkBstKZRWA-5" value="" style="rounded=0;whiteSpace=wrap;html=1;gradientColor=default;" parent="1" vertex="1">
                    <mxGeometry x="520" y="140" width="280" height="150" as="geometry"/>
                </mxCell>
                <mxCell id="3ADqGS6lFxCkBstKZRWA-6" value="" style="endArrow=classic;html=1;rounded=0;entryX=0.5;entryY=0;entryDx=0;entryDy=0;fillColor=#1ba1e2;strokeColor=#006EAF;shape=flexArrow;" parent="1" target="3ADqGS6lFxCkBstKZRWA-3" edge="1">
                    <mxGeometry width="50" height="50" relative="1" as="geometry">
                        <mxPoint x="229.5" y="290" as="sourcePoint"/>
                        <mxPoint x="229.5" y="400" as="targetPoint"/>
                    </mxGeometry>
                </mxCell>
                <mxCell id="3ADqGS6lFxCkBstKZRWA-7" value="" style="endArrow=classic;html=1;rounded=0;entryX=-0.008;entryY=0.609;entryDx=0;entryDy=0;entryPerimeter=0;shape=flexArrow;fillColor=#1ba1e2;strokeColor=#006EAF;" parent="1" target="3ADqGS6lFxCkBstKZRWA-5" edge="1">
                    <mxGeometry width="50" height="50" relative="1" as="geometry">
                        <mxPoint x="370" y="230" as="sourcePoint"/>
                        <mxPoint x="420" y="180" as="targetPoint"/>
                        <Array as="points">
                            <mxPoint x="470" y="230"/>
                        </Array>
                    </mxGeometry>
                </mxCell>
                <mxCell id="3ADqGS6lFxCkBstKZRWA-8" value="" style="endArrow=classic;html=1;rounded=0;entryX=1;entryY=0;entryDx=0;entryDy=0;fillColor=#1ba1e2;strokeColor=#006EAF;shape=flexArrow;" parent="1" target="3ADqGS6lFxCkBstKZRWA-3" edge="1">
                    <mxGeometry width="50" height="50" relative="1" as="geometry">
                        <mxPoint x="520" y="290" as="sourcePoint"/>
                        <mxPoint x="500" y="360" as="targetPoint"/>
                    </mxGeometry>
                </mxCell>
                <mxCell id="3ADqGS6lFxCkBstKZRWA-9" value="" style="endArrow=classic;html=1;rounded=0;entryX=0.287;entryY=-0.031;entryDx=0;entryDy=0;entryPerimeter=0;shape=flexArrow;fillColor=#1ba1e2;strokeColor=#006EAF;" parent="1" target="3ADqGS6lFxCkBstKZRWA-4" edge="1">
                    <mxGeometry width="50" height="50" relative="1" as="geometry">
                        <mxPoint x="590" y="290" as="sourcePoint"/>
                        <mxPoint x="590" y="400" as="targetPoint"/>
                    </mxGeometry>
                </mxCell>
                <mxCell id="3ADqGS6lFxCkBstKZRWA-10" value="" style="endArrow=classic;html=1;rounded=0;entryX=0.708;entryY=-0.031;entryDx=0;entryDy=0;entryPerimeter=0;shape=flexArrow;fillColor=#1ba1e2;strokeColor=#006EAF;" parent="1" target="3ADqGS6lFxCkBstKZRWA-4" edge="1">
                    <mxGeometry width="50" height="50" relative="1" as="geometry">
                        <mxPoint x="710" y="290" as="sourcePoint"/>
                        <mxPoint x="760" y="240" as="targetPoint"/>
                    </mxGeometry>
                </mxCell>
                <mxCell id="3ADqGS6lFxCkBstKZRWA-11" value="" style="shape=datastore;whiteSpace=wrap;html=1;fillColor=#f5f5f5;fontColor=#333333;strokeColor=#666666;" parent="1" vertex="1">
                    <mxGeometry x="530" y="500" width="60" height="60" as="geometry"/>
                </mxCell>
                <mxCell id="3ADqGS6lFxCkBstKZRWA-12" value="&lt;font color=&quot;#000000&quot;&gt;STRIPE&lt;/font&gt;" style="rounded=0;whiteSpace=wrap;html=1;fillColor=#dae8fc;strokeColor=#6c8ebf;" parent="1" vertex="1">
                    <mxGeometry x="650" y="505" width="120" height="60" as="geometry"/>
                </mxCell>
                <mxCell id="3ADqGS6lFxCkBstKZRWA-13" value="&lt;font color=&quot;#000000&quot;&gt;Controllers&lt;/font&gt;" style="rounded=0;whiteSpace=wrap;html=1;fillColor=#d5e8d4;strokeColor=#82b366;" parent="1" vertex="1">
                    <mxGeometry x="100" y="185" width="120" height="35" as="geometry"/>
                </mxCell>
                <mxCell id="3ADqGS6lFxCkBstKZRWA-14" value="API" style="text;html=1;strokeColor=none;fillColor=none;align=center;verticalAlign=middle;whiteSpace=wrap;rounded=0;" parent="1" vertex="1">
                    <mxGeometry x="200" y="150" width="60" height="30" as="geometry"/>
                </mxCell>
                <mxCell id="3ADqGS6lFxCkBstKZRWA-15" value="Core" style="text;html=1;strokeColor=none;fillColor=none;align=center;verticalAlign=middle;whiteSpace=wrap;rounded=0;" parent="1" vertex="1">
                    <mxGeometry x="190" y="470" width="60" height="30" as="geometry"/>
                </mxCell>
                <mxCell id="3ADqGS6lFxCkBstKZRWA-16" value="Infrastructure" style="text;html=1;strokeColor=none;fillColor=none;align=center;verticalAlign=middle;whiteSpace=wrap;rounded=0;" parent="1" vertex="1">
                    <mxGeometry x="630" y="150" width="60" height="30" as="geometry"/>
                </mxCell>
                <mxCell id="3ADqGS6lFxCkBstKZRWA-19" value="&lt;font color=&quot;#000000&quot;&gt;Repository&lt;/font&gt;" style="rounded=0;whiteSpace=wrap;html=1;fillColor=#d5e8d4;strokeColor=#82b366;" parent="1" vertex="1">
                    <mxGeometry x="530" y="185" width="120" height="25" as="geometry"/>
                </mxCell>
                <mxCell id="3ADqGS6lFxCkBstKZRWA-20" value="&lt;font color=&quot;#000000&quot;&gt;DbContext&lt;/font&gt;" style="rounded=0;whiteSpace=wrap;html=1;fillColor=#d5e8d4;strokeColor=#82b366;" parent="1" vertex="1">
                    <mxGeometry x="530" y="220" width="120" height="25" as="geometry"/>
                </mxCell>
                <mxCell id="3ADqGS6lFxCkBstKZRWA-21" value="&lt;font color=&quot;#000000&quot;&gt;Services&lt;/font&gt;" style="rounded=0;whiteSpace=wrap;html=1;fillColor=#d5e8d4;strokeColor=#82b366;" parent="1" vertex="1">
                    <mxGeometry x="530" y="255" width="120" height="25" as="geometry"/>
                </mxCell>
                <mxCell id="3ADqGS6lFxCkBstKZRWA-22" value="&lt;font color=&quot;#000000&quot;&gt;Interfaces&lt;/font&gt;" style="rounded=0;whiteSpace=wrap;html=1;fillColor=#d5e8d4;strokeColor=#82b366;" parent="1" vertex="1">
                    <mxGeometry x="100" y="538" width="120" height="25" as="geometry"/>
                </mxCell>
                <mxCell id="3ADqGS6lFxCkBstKZRWA-23" value="&lt;font color=&quot;#000000&quot;&gt;Entities&lt;/font&gt;" style="rounded=0;whiteSpace=wrap;html=1;fillColor=#d5e8d4;strokeColor=#82b366;" parent="1" vertex="1">
                    <mxGeometry x="100" y="505" width="120" height="25" as="geometry"/>
                </mxCell>
            </root>
        </mxGraphModel>
    </diagram>
</mxfile>